# Blender v2.81 (sub 16) OBJ File: ''
# www.blender.org
mtllib Deagle.mtl
o mag_Cube.001_clip_Cube.001
v 2.355783 -2.401389 -6.720253
v 2.355783 -0.873526 -7.031559
v 2.089374 -0.873526 -7.031559
v 2.089374 -2.401389 -6.720253
v 2.089374 -0.873526 -7.608048
v 2.089374 -2.401389 -7.296742
v 2.355783 -0.873526 -7.608048
v 2.355783 -2.401389 -7.296742
v 2.089374 -2.431683 -6.713182
v 2.089374 -2.431683 -7.289671
v 2.355783 -2.431683 -7.289672
v 2.355783 -2.431683 -6.713182
v 2.398122 -2.401389 -7.296742
v 2.398122 -2.431683 -7.289672
v 2.355783 -2.431683 -7.289672
v 2.355783 -2.401389 -7.296742
v 2.047209 -2.401389 -7.296742
v 2.047209 -2.401389 -6.720253
v 2.355783 -2.431218 -6.713347
v 2.089374 -2.431218 -6.713347
v 2.355783 -2.431683 -7.378860
v 2.355783 -2.401389 -7.385931
v 2.089374 -2.431683 -7.289671
v 2.089374 -2.401389 -7.296742
v 2.089374 -2.431683 -7.378860
v 2.089374 -2.401389 -7.385931
v 2.398122 -2.401389 -6.720253
v 2.398122 -2.431683 -6.713182
v 2.047209 -2.431683 -6.713182
v 2.047209 -2.431683 -7.289671
v 2.355783 -2.400925 -6.720418
v 2.089374 -2.400925 -6.720418
vt 0.379860 0.000000
vt 0.625000 0.000000
vt 0.625000 0.250000
vt 0.379860 0.250000
vt 0.625000 0.500000
vt 0.379861 0.500000
vt 0.625000 0.750000
vt 0.379860 0.750000
vt 0.625000 1.000000
vt 0.379860 1.000000
vt 0.125000 0.500000
vt 0.375000 0.500000
vt 0.375000 0.750000
vt 0.125000 0.750000
vt 0.875000 0.500000
vt 0.875000 0.750000
vt 0.379860 0.750000
vt 0.375000 0.750000
vt 0.375000 0.750000
vt 0.379860 0.750000
vt 0.379861 0.500000
vt 0.379860 0.250000
vt 0.125000 0.750000
vt 0.125000 0.500000
vt 0.375000 0.750000
vt 0.379860 0.750000
vt 0.375000 0.500000
vt 0.379861 0.500000
vt 0.375000 0.500000
vt 0.379861 0.500000
vt 0.379860 1.000000
vt 0.375000 1.000000
vt 0.375000 0.000000
vt 0.375000 0.000000
vt 0.379860 0.000000
vt 0.125000 0.750000
vt 0.375000 0.250000
vt 0.375000 0.500000
vt 0.375000 0.250000
vt 0.125000 0.500000
vt 0.375000 0.000000
vt 0.379860 0.000000
vt 0.379860 0.250000
vt 0.375000 0.250000
vn 0.0000 0.1997 0.9799
vn -1.0000 0.0000 0.0000
vn 0.0000 -0.1997 -0.9799
vn 1.0000 -0.0000 -0.0000
vn -0.0000 -1.0000 -0.0000
vn 0.0000 1.0000 0.0000
vn 0.0000 -0.2273 -0.9738
vn -0.4018 -0.1665 -0.9005
vn -0.1259 0.3040 -0.9443
vn -0.4302 -0.0415 -0.9018
vn -0.4098 0.0954 -0.9072
vn 0.0000 0.3344 0.9424
vn 0.3040 0.1259 -0.9443
vn -0.3040 0.1259 -0.9443
vn 0.1665 -0.4018 -0.9005
vn 0.1664 0.4019 -0.9005
vn 0.0000 0.2273 0.9738
vn 0.0000 -0.3350 -0.9422
usemtl None
s 1
f 1/1/1 2/2/1 3/3/1 4/4/1
f 4/4/2 3/3/2 5/5/2 6/6/2
f 6/6/3 5/5/3 7/7/3 8/8/3
f 8/8/4 7/7/4 2/9/4 1/10/4
f 9/11/5 10/12/5 11/13/5 12/14/5
f 5/5/6 3/15/6 2/16/6 7/7/6
f 11/13/7 8/8/7 13/17/7 14/18/7
f 8/8/8 11/13/9 15/19/10 16/20/11
f 4/4/6 6/6/6 17/21/6 18/22/6
f 9/11/12 12/14/12 19/23/12 20/24/12
f 16/20/11 15/19/10 21/25/4 22/26/4
f 11/13/9 10/12/13 23/27/14 15/19/10
f 10/12/13 6/6/15 24/28/16 23/27/14
f 6/6/15 8/8/8 16/20/11 24/28/16
f 25/29/7 26/30/7 22/26/7 21/25/7
f 23/27/2 24/28/2 26/30/2 25/29/2
f 24/28/6 16/20/6 22/26/6 26/30/6
f 15/19/5 23/27/5 25/29/5 21/25/5
f 14/18/4 13/17/4 27/31/4 28/32/4
f 8/8/6 1/10/6 27/31/6 13/17/6
f 1/1/17 12/33/17 28/34/17 27/35/17
f 12/14/5 11/13/5 14/18/5 28/36/5
f 29/37/2 18/22/2 17/21/2 30/38/2
f 9/39/17 4/4/17 18/22/17 29/37/17
f 6/6/7 10/12/7 30/38/7 17/21/7
f 10/12/5 9/11/5 29/40/5 30/38/5
f 19/41/17 31/42/17 32/43/17 20/44/17
f 4/4/4 9/39/4 20/44/4 32/43/4
f 12/33/2 1/1/2 31/42/2 19/41/2
f 1/1/18 4/4/18 32/43/18 31/42/18
o grip_Cube.002_handle_Cube.002
v 2.395548 -0.776897 -6.969674
v 2.386170 -0.738038 -7.038770
v 2.037505 -0.738038 -7.038770
v 2.028127 -0.776897 -6.969674
v 2.055270 -0.739622 -7.798454
v 2.048184 -0.803385 -7.787660
v 2.368405 -0.739622 -7.798454
v 2.375492 -0.803385 -7.787660
v 2.278744 -0.796645 -8.233067
v 2.278744 -0.741013 -8.243279
v 2.035300 -2.377024 -6.721529
v 2.035300 -2.377112 -7.414918
v 2.388375 -2.377112 -7.414919
v 2.388375 -2.377024 -6.721529
v 2.397202 -2.310641 -7.413441
v 2.397202 -2.309804 -6.609168
v 2.026473 -2.310641 -7.413441
v 2.026473 -2.309804 -6.609168
v 2.397202 -1.798932 -7.527224
v 2.399044 -1.276301 -7.660038
v 2.397202 -1.282071 -6.842142
v 2.397202 -1.798320 -6.724509
v 2.026473 -1.798932 -7.527224
v 2.024631 -1.276301 -7.660038
v 2.026473 -1.798320 -6.724509
v 2.026473 -1.282071 -6.842142
v 2.419365 -1.115966 -7.676608
v 2.403151 -1.089122 -7.701336
v 2.397202 -1.087419 -6.723092
v 2.397202 -1.115345 -6.753088
v 2.419365 -1.146116 -7.671409
v 2.338889 -1.234765 -7.783033
v 2.357326 -1.147847 -7.802588
v 2.026473 -1.115345 -6.753088
v 2.026473 -1.087419 -6.723092
v 2.020524 -1.089122 -7.701335
v 2.004310 -1.115966 -7.676608
v 2.397202 -1.013852 -7.662321
v 2.397202 -1.013759 -6.566705
v 2.026473 -1.013852 -7.662321
v 2.026473 -1.013759 -6.566705
v 2.395548 -0.925693 -7.685379
v 2.397202 -0.923361 -6.757007
v 2.028127 -0.925693 -7.685379
v 2.026473 -0.923361 -6.757007
v 2.370721 -1.090859 -7.743865
v 2.052954 -1.090859 -7.743865
v 2.397202 -1.145712 -6.775813
v 2.026473 -1.145712 -6.775813
v 2.004310 -1.146116 -7.671409
v 2.084786 -1.234765 -7.783033
v 2.066349 -1.147847 -7.802588
v 2.094000 -1.150587 -7.953413
v 2.115082 -1.222341 -7.937272
v 2.308593 -1.222341 -7.937272
v 2.357326 -1.122077 -7.808384
v 2.339152 -1.102422 -7.812807
v 2.084523 -1.102422 -7.812807
v 2.066349 -1.122077 -7.808384
v 2.093907 -1.129346 -7.958192
v 2.112193 -1.113125 -7.961842
v 2.123923 -1.121907 -8.010976
v 2.106116 -1.135529 -8.009610
v 2.329861 -1.150587 -7.953413
v 2.299845 -1.212519 -7.993737
v 2.321853 -1.153474 -8.007274
v 2.329768 -1.129346 -7.958192
v 2.311482 -1.113125 -7.961842
v 2.317745 -1.135529 -8.009610
v 2.269176 -1.150593 -8.275601
v 2.273474 -1.141379 -8.250289
v 2.124016 -1.212518 -7.993737
v 2.103873 -1.153474 -8.007274
v 2.152261 -1.150593 -8.275601
v 2.160689 -1.173087 -8.258874
v 2.299752 -1.121907 -8.010976
v 2.164062 -1.111928 -8.291540
v 2.259427 -1.111928 -8.291540
v 2.262738 -1.173087 -8.258874
v 2.263638 -1.133525 -8.228626
v 2.160037 -1.133525 -8.228626
v 2.150013 -1.141379 -8.250289
v 2.166999 -0.858282 -8.286923
v 2.256675 -0.858282 -8.286923
v 2.164634 -1.098439 -8.253677
v 2.157716 -1.104116 -8.272610
v 2.265959 -1.104116 -8.272610
v 2.259041 -1.098439 -8.253677
v 2.164757 -0.823762 -8.268650
v 2.166999 -0.826820 -8.250583
v 2.256676 -0.826820 -8.250583
v 2.258918 -0.823762 -8.268650
v 2.144932 -0.796645 -8.233067
v 2.144932 -0.741013 -8.243279
vt 0.620276 0.000000
vt 0.625000 0.000000
vt 0.625000 0.250000
vt 0.620276 0.250000
vt 0.625000 0.500000
vt 0.620276 0.500000
vt 0.625000 0.750000
vt 0.620276 0.750000
vt 0.620276 0.750000
vt 0.625000 0.750000
vt 0.625000 1.000000
vt 0.620276 1.000000
vt 0.125000 0.500000
vt 0.375000 0.500000
vt 0.375000 0.750000
vt 0.125000 0.750000
vt 0.875000 0.500000
vt 0.875000 0.750000
vt 0.380774 0.750000
vt 0.380774 1.000000
vt 0.375000 1.000000
vt 0.380774 0.500000
vt 0.375000 0.250000
vt 0.380774 0.250000
vt 0.375000 0.000000
vt 0.380774 0.000000
vt 0.463353 0.750000
vt 0.545932 0.750000
vt 0.545932 1.000000
vt 0.463353 1.000000
vt 0.463353 0.500000
vt 0.545932 0.500000
vt 0.463353 0.250000
vt 0.545932 0.250000
vt 0.463353 0.000000
vt 0.545932 0.000000
vt 0.567223 0.750000
vt 0.570981 0.750000
vt 0.570981 1.000000
vt 0.567223 1.000000
vt 0.563466 0.750000
vt 0.545932 0.750000
vt 0.563466 0.750000
vt 0.567223 0.250000
vt 0.570981 0.250000
vt 0.570981 0.500000
vt 0.567223 0.500000
vt 0.567223 0.000000
vt 0.570981 0.000000
vt 0.582590 0.750000
vt 0.582590 1.000000
vt 0.582590 0.500000
vt 0.582590 0.250000
vt 0.582590 0.000000
vt 0.595706 0.750000
vt 0.595706 1.000000
vt 0.595706 0.500000
vt 0.595706 0.250000
vt 0.595706 0.000000
vt 0.570981 0.750000
vt 0.570981 0.500000
vt 0.563466 0.000000
vt 0.563466 0.250000
vt 0.563466 0.500000
vt 0.545932 0.500000
vt 0.563466 1.000000
vt 0.563466 0.500000
vt 0.563466 0.500000
vt 0.545932 0.500000
vt 0.545932 0.750000
vt 0.567223 0.750000
vt 0.570981 0.750000
vt 0.570981 0.500000
vt 0.567223 0.500000
vt 0.567223 0.500000
vt 0.570981 0.500000
vt 0.570981 0.500000
vt 0.567223 0.500000
vt 0.563466 0.750000
vt 0.545932 0.750000
vt 0.563466 0.750000
vt 0.567223 0.750000
vt 0.570981 0.750000
vt 0.567223 0.750000
vt 0.563466 0.750000
vt 0.567223 0.750000
vt 0.545932 0.500000
vt 0.563466 0.500000
vt 0.563466 0.500000
vt 0.545932 0.500000
vt 0.570981 0.750000
vt 0.563466 0.500000
vt 0.563466 0.750000
vt 0.545932 0.750000
vt 0.570981 0.750000
vt 0.570981 0.500000
vt 0.567223 0.500000
vt 0.563466 0.500000
vt 0.563466 0.750000
vt 0.570981 0.500000
vt 0.567223 0.500000
vt 0.567223 0.750000
vt 0.570981 0.750000
vt 0.567223 0.500000
vt 0.570981 0.500000
vt 0.570981 0.750000
vt 0.567223 0.750000
vt 0.620276 0.500000
vt 0.625000 0.500000
vn 0.0000 0.8716 0.4902
vn -0.9900 0.1384 -0.0262
vn 0.9786 0.0220 -0.2048
vn 0.9900 0.1384 -0.0262
vn 0.0000 -1.0000 0.0001
vn 0.0000 1.0000 -0.0026
vn 0.0000 1.0000 -0.0021
vn 0.9914 -0.1310 0.0001
vn 0.0000 0.0222 -0.9998
vn -0.9914 -0.1310 0.0001
vn 0.0000 -0.8582 0.5134
vn 1.0000 -0.0002 0.0000
vn 1.0000 -0.0015 0.0011
vn 1.0000 -0.0015 0.0010
vn 0.0000 -0.2463 -0.9692
vn -1.0000 -0.0015 0.0010
vn -1.0000 -0.0015 0.0011
vn -1.0000 -0.0002 0.0000
vn 0.0000 0.2211 0.9753
vn 0.0000 0.2222 0.9750
vn 0.9591 0.2826 0.0138
vn 0.8656 -0.2187 -0.4504
vn -0.9591 0.2826 0.0138
vn 0.0000 -0.7319 0.6814
vn 0.9993 0.0362 0.0028
vn -0.0000 0.4602 -0.8878
vn -0.9993 0.0362 0.0028
vn 0.0000 -0.9047 0.4261
vn 1.0000 0.0083 -0.0008
vn 0.0000 -0.2530 -0.9675
vn -1.0000 0.0083 -0.0008
vn 0.0000 0.9033 0.4291
vn 0.0000 0.9992 -0.0408
vn 0.0000 0.2200 0.9755
vn -1.0000 0.0000 0.0000
vn 0.0000 -0.2171 -0.9762
vn 1.0000 -0.0000 -0.0000
vn 0.0000 -0.4374 0.8993
vn -0.9968 -0.0788 0.0137
vn 0.0000 -0.9474 -0.3200
vn 0.9968 -0.0788 0.0137
vn -0.9424 -0.2769 -0.1878
vn 0.0000 -0.9968 -0.0803
vn 0.9022 -0.0832 -0.4232
vn -0.8656 -0.2187 -0.4504
vn 0.0000 0.9930 -0.1185
vn -0.8281 0.3271 -0.4552
vn -0.6365 0.7262 -0.2596
vn 0.9253 -0.3429 -0.1621
vn 0.9832 -0.0382 -0.1787
vn 0.0000 0.9974 -0.0716
vn 0.9422 -0.2779 -0.1872
vn -0.7100 0.6828 -0.1723
vn 0.9710 0.1504 -0.1858
vn -0.9071 -0.3828 -0.1750
vn -0.0000 -0.9852 -0.1714
vn -0.9260 -0.3324 -0.1788
vn 0.9788 0.0700 -0.1923
vn 0.0000 0.9844 -0.1759
vn 0.0000 -0.3811 -0.9245
vn 0.0000 -0.5967 -0.8024
vn 0.0000 0.9986 -0.0533
vn 0.9052 -0.3836 -0.1828
vn -0.5463 0.8279 -0.1269
vn -0.0000 -0.9891 -0.1471
vn 0.0000 0.0182 -0.9998
vn -0.9054 0.3294 0.2680
vn 0.9600 0.0837 -0.2672
vn 0.0000 0.5811 0.8138
vn 0.0000 0.9860 0.1669
vn -0.9708 0.0135 0.2394
vn 0.9672 0.0218 -0.2529
vn 0.0000 -0.0114 0.9999
vn 0.9708 0.0135 0.2394
vn -0.9683 0.0221 -0.2487
vn 0.0000 0.4678 -0.8838
vn 0.9073 0.3259 0.2658
vn -0.9631 0.1282 -0.2364
vn -0.9727 0.1498 -0.1772
vn 0.6348 0.7282 -0.2583
vn 0.5461 0.8280 -0.1273
vn -0.9829 -0.0422 -0.1791
vn 0.7100 0.6828 -0.1723
vn -0.9783 0.0162 -0.2066
vn -0.9022 -0.0832 -0.4232
vn 0.8281 0.3271 -0.4552
vn 0.0000 -0.5991 0.8006
vn -0.9997 -0.0071 0.0244
vn 0.9997 -0.0070 0.0244
vn 0.9978 0.0648 -0.0135
vn 0.0000 -0.6415 -0.7671
vn -0.9978 0.0648 -0.0135
vn 0.0000 0.8236 0.5672
vn 0.0000 -0.1806 -0.9836
vn 0.0000 1.0000 -0.0031
vn -0.9786 0.0220 -0.2048
vn 0.0000 -0.9999 -0.0151
usemtl None
s 1
f 33/45/19 34/46/19 35/47/19 36/48/19
f 36/48/20 35/47/20 37/49/20 38/50/20
f 39/51/21 40/52/21 41/53/21 42/54/21
f 40/52/22 39/51/22 34/55/22 33/56/22
f 43/57/23 44/58/23 45/59/23 46/60/23
f 37/49/24 35/61/25 34/62/25 39/51/24
f 45/59/26 47/63/26 48/64/26 46/65/26
f 44/58/27 49/66/27 47/63/27 45/59/27
f 43/67/28 50/68/28 49/66/28 44/58/28
f 46/69/29 48/70/29 50/68/29 43/67/29
f 51/71/30 52/72/31 53/73/31 54/74/32
f 55/75/33 56/76/33 52/72/33 51/71/33
f 57/77/34 58/78/35 56/76/35 55/75/36
f 54/79/37 53/80/38 58/78/38 57/77/37
f 59/81/39 60/82/39 61/83/39 62/84/39
f 63/85/40 52/72/40 64/86/40 65/87/40
f 66/88/41 67/89/41 68/90/41 69/91/41
f 62/92/42 61/93/42 67/89/42 66/88/42
f 60/82/43 70/94/43 71/95/43 61/83/43
f 68/90/44 72/96/44 70/94/44 60/82/44
f 67/89/45 73/97/45 72/96/45 68/90/45
f 61/93/46 71/98/46 73/97/46 67/89/46
f 70/94/47 74/99/47 75/100/47 71/95/47
f 72/96/48 76/101/48 74/99/48 70/94/48
f 73/97/49 77/102/49 76/101/49 72/96/49
f 71/98/50 75/103/50 77/102/50 73/97/50
f 68/90/51 60/82/51 78/104/51 79/105/51
f 48/70/52 54/79/37 57/77/37 50/68/52
f 50/68/53 57/77/34 55/75/36 49/66/53
f 49/66/54 55/75/54 51/71/54 47/63/54
f 47/63/55 51/71/30 54/74/32 48/64/55
f 53/80/56 80/106/56 81/107/56 58/78/56
f 58/78/57 81/107/57 82/108/57 56/76/57
f 52/72/58 56/76/58 83/109/58 64/86/58
f 52/72/59 63/85/59 80/110/59 53/73/59
f 83/109/60 84/111/60 85/112/60 86/113/60
f 64/86/61 83/109/61 86/113/61 87/114/61
f 59/81/62 63/85/62 65/87/62 88/115/62
f 56/76/63 82/108/63 84/111/63 83/109/63
f 68/90/64 60/82/64 89/116/64 90/117/64
f 69/91/65 68/90/65 90/117/65 91/118/65
f 92/119/66 93/120/66 94/121/66 95/122/66
f 96/123/67 87/114/67 97/124/67 98/125/67
f 88/115/68 65/87/68 96/123/68 99/126/68
f 90/117/69 89/116/69 100/127/69 93/120/69
f 65/87/70 64/86/70 87/114/70 96/123/70
f 91/118/71 90/117/71 93/120/71 92/119/71
f 101/128/72 98/125/72 102/129/72 103/130/72
f 104/131/73 105/132/73 106/133/73 107/134/73
f 87/114/74 86/113/74 104/131/74 97/124/74
f 86/113/75 85/112/75 105/132/75 104/131/75
f 99/126/76 96/123/76 98/125/76 101/128/76
f 93/120/77 100/127/77 108/135/77 94/121/77
f 102/129/78 106/133/78 109/136/78 110/137/78
f 107/134/79 106/133/79 102/129/79 111/138/79
f 94/121/80 108/135/80 112/139/80 113/140/80
f 98/125/81 97/124/81 111/138/81 102/129/81
f 95/122/82 94/121/82 113/140/82 114/141/82
f 97/124/83 104/131/83 107/134/83 111/138/83
f 110/137/84 109/136/84 115/142/84 116/143/84
f 114/141/85 113/140/85 117/144/85 118/145/85
f 103/130/86 102/129/86 110/137/86 119/146/86
f 113/140/87 112/139/87 120/147/87 117/144/87
f 121/148/88 122/149/88 123/150/88 124/151/88
f 118/145/89 117/144/89 122/149/89 121/148/89
f 119/146/90 110/137/90 116/143/90 124/151/90
f 117/144/91 120/147/91 123/150/91 122/149/91
f 120/147/92 119/146/92 124/151/92 123/150/92
f 109/136/93 118/145/93 121/148/93 115/142/93
f 115/142/94 121/148/94 124/151/94 116/143/94
f 112/139/95 103/130/95 119/146/95 120/147/95
f 106/133/96 114/141/96 118/145/96 109/136/96
f 105/132/97 95/122/97 114/141/97 106/133/97
f 100/127/98 99/126/98 101/128/98 108/135/98
f 108/135/99 101/128/99 103/130/99 112/139/99
f 84/111/100 91/118/100 92/119/100 85/112/100
f 89/116/101 88/115/101 99/126/101 100/127/101
f 85/112/102 92/119/102 95/122/102 105/132/102
f 82/108/103 69/91/103 91/118/103 84/111/103
f 60/82/104 59/81/104 88/115/104 89/116/104
f 80/106/105 62/92/105 66/88/105 81/107/105
f 81/107/106 66/88/106 69/91/106 82/108/106
f 63/85/107 59/81/107 62/84/107 80/110/107
f 74/99/108 40/52/108 33/56/108 75/100/108
f 76/101/109 38/50/109 40/52/109 74/99/109
f 77/102/110 36/48/110 38/50/110 76/101/110
f 75/103/111 33/45/111 36/48/111 77/102/111
f 125/152/112 126/153/112 42/54/112 41/53/112
f 37/49/24 39/51/24 42/54/113 126/153/113
f 38/50/114 37/49/114 126/153/114 125/152/114
f 40/52/115 38/50/115 125/152/115 41/53/115
o slide_Cube.003_Cube_Cube.003
v 2.476445 -0.775076 -6.899977
v 2.476445 -0.277339 -6.899977
v 1.968712 -0.277339 -6.899977
v 1.968712 -0.775076 -6.899977
v 1.968711 -0.277339 -9.772483
v 1.968711 -0.775076 -9.772483
v 2.476444 -0.277339 -9.772483
v 2.476444 -0.775076 -9.772483
vt 0.375000 0.000000
vt 0.625000 0.000000
vt 0.625000 0.250000
vt 0.375000 0.250000
vt 0.625000 0.500000
vt 0.375000 0.500000
vt 0.625000 0.750000
vt 0.375000 0.750000
vt 0.625000 1.000000
vt 0.375000 1.000000
vt 0.125000 0.500000
vt 0.125000 0.750000
vt 0.875000 0.500000
vt 0.875000 0.750000
vn 0.0000 0.0000 1.0000
vn -1.0000 0.0000 0.0000
vn 0.0000 0.0000 -1.0000
vn 1.0000 0.0000 -0.0000
vn 0.0000 -1.0000 -0.0000
vn 0.0000 1.0000 0.0000
usemtl None
s 1
f 127/154/116 128/155/116 129/156/116 130/157/116
f 130/157/117 129/156/117 131/158/117 132/159/117
f 132/159/118 131/158/118 133/160/118 134/161/118
f 134/161/119 133/160/119 128/162/119 127/163/119
f 130/164/120 132/159/120 134/161/120 127/165/120
f 131/158/121 129/166/121 128/167/121 133/160/121
