# Blender v2.80 (sub 75) OBJ File: 'DesertEagle.blend'
# www.blender.org
mtllib DesertEagle.mtl
o clip_Cube.001
v -0.015056 0.288812 0.160794
v 0.303321 1.846969 0.160794
v -0.015056 0.288812 -0.105615
v 0.303321 1.846969 -0.105615
v 0.561433 0.288812 0.160794
v 0.879810 1.846969 0.160794
v 0.561433 0.288812 -0.105615
v 0.879810 1.846969 -0.105615
v -0.007985 0.319106 0.160794
v -0.007985 0.319106 -0.105615
v 0.568504 0.319106 -0.105615
v 0.568504 0.319106 0.160794
v 0.568504 0.319106 -0.105615
v 0.561433 0.288812 -0.105615
v 0.561433 0.288812 0.160794
v 0.568504 0.319106 0.160794
v 0.657693 0.319106 -0.105615
v 0.650622 0.288812 -0.105615
v 0.650622 0.288812 0.160794
v 0.657693 0.319106 0.160794
v 0.568504 0.319106 0.203133
v 0.561433 0.288812 0.203133
v -0.015056 0.288812 0.203133
v -0.007985 0.319106 0.203133
v -0.007985 0.319106 -0.147780
v -0.015056 0.288812 -0.147780
v 0.561433 0.288812 -0.147780
v 0.568504 0.319106 -0.147780
v -0.014891 0.289277 -0.105615
v -0.014891 0.289277 0.160794
v -0.007820 0.319570 -0.105615
v -0.007820 0.319570 0.160794
vt 0.379860 0.000000
vt 0.625000 0.000000
vt 0.625000 0.250000
vt 0.379860 0.250000
vt 0.625000 0.500000
vt 0.379861 0.500000
vt 0.625000 0.750000
vt 0.379860 0.750000
vt 0.625000 1.000000
vt 0.379860 1.000000
vt 0.125000 0.500000
vt 0.375000 0.500000
vt 0.375000 0.750000
vt 0.125000 0.750000
vt 0.875000 0.500000
vt 0.875000 0.750000
vt 0.379860 0.750000
vt 0.375000 0.750000
vt 0.375000 0.750000
vt 0.379860 0.750000
vt 0.379861 0.500000
vt 0.379860 0.250000
vt 0.125000 0.750000
vt 0.125000 0.500000
vt 0.375000 0.750000
vt 0.379860 0.750000
vt 0.375000 0.500000
vt 0.379861 0.500000
vt 0.375000 0.500000
vt 0.379861 0.500000
vt 0.379860 1.000000
vt 0.375000 1.000000
vt 0.375000 0.000000
vt 0.375000 0.000000
vt 0.379860 0.000000
vt 0.125000 0.750000
vt 0.375000 0.250000
vt 0.375000 0.500000
vt 0.375000 0.250000
vt 0.125000 0.500000
vt 0.375000 0.000000
vt 0.379860 0.000000
vt 0.379860 0.250000
vt 0.375000 0.250000
vn -0.9799 0.1997 0.0000
vn 0.0000 0.0000 -1.0000
vn 0.9799 -0.1997 0.0000
vn 0.0000 0.0000 1.0000
vn 0.0000 -1.0000 0.0000
vn 0.0000 1.0000 0.0000
vn 0.9738 -0.2273 0.0000
vn -0.9423 0.3347 0.0000
vn -0.9738 0.2273 0.0000
vn 0.0003 0.0000 -1.0000
vn 0.9423 -0.3348 0.0000
usemtl None
s off
f 9/1/1 2/2/1 4/3/1 10/4/1
f 10/4/2 4/3/2 8/5/2 11/6/2
f 11/6/3 8/5/3 6/7/3 12/8/3
f 12/8/4 6/7/4 2/9/4 9/10/4
f 3/11/5 7/12/5 5/13/5 1/14/5
f 8/5/6 4/15/6 2/16/6 6/7/6
f 5/13/7 12/8/7 21/17/7 22/18/7
f 12/8/4 5/13/4 15/19/4 16/20/4
f 10/4/6 11/6/6 28/21/6 25/22/6
f 3/11/8 1/14/8 30/23/8 29/24/8
f 16/20/4 15/19/4 19/25/4 20/26/4
f 5/13/4 7/12/4 14/27/4 15/19/4
f 7/12/4 11/6/4 13/28/4 14/27/4
f 11/6/4 12/8/4 16/20/4 13/28/4
f 18/29/7 17/30/7 20/26/7 19/25/7
f 14/27/2 13/28/2 17/30/2 18/29/2
f 13/28/6 16/20/6 20/26/6 17/30/6
f 15/19/5 14/27/5 18/29/5 19/25/5
f 22/18/4 21/17/4 24/31/4 23/32/4
f 12/8/6 9/10/6 24/31/6 21/17/6
f 9/1/9 1/33/9 23/34/9 24/35/9
f 1/14/5 5/13/5 22/18/5 23/36/5
f 26/37/2 25/22/2 28/21/2 27/38/2
f 3/39/9 10/4/9 25/22/9 26/37/9
f 11/6/7 7/12/7 27/38/7 28/21/7
f 7/12/5 3/11/5 26/40/5 27/38/5
f 30/41/9 32/42/9 31/43/9 29/44/9
f 10/4/4 3/39/4 29/44/4 31/43/4
f 1/33/10 9/1/10 32/42/10 30/41/10
f 9/1/11 10/4/11 31/43/11 32/42/11
o handle_Cube.002
v -0.006710 0.343471 0.193386
v 0.310531 1.982457 0.191181
v -0.006710 0.343471 -0.159689
v 0.310531 1.982457 -0.157484
v 0.686680 0.343383 0.193386
v 1.070216 1.980873 0.173416
v 0.686680 0.343383 -0.159689
v 1.070216 1.980873 -0.139719
v -0.119071 0.410691 0.202213
v -0.119071 0.410691 -0.168516
v 0.685202 0.409854 -0.168516
v 0.685202 0.409854 0.202213
v 0.113903 1.438424 0.202213
v 0.113903 1.438424 -0.168516
v 0.931799 1.444194 -0.170358
v 0.931799 1.444194 0.204055
v -0.005147 1.633076 0.202213
v -0.005147 1.633076 -0.168516
v 0.973097 1.631373 -0.174465
v 0.973097 1.631373 0.208162
v -0.161534 1.706736 0.202213
v -0.161534 1.706736 -0.168516
v 0.934082 1.706643 -0.168516
v 0.934082 1.706643 0.202213
v 0.028768 1.797134 0.202213
v 0.028768 1.797134 -0.168516
v 0.957140 1.794802 -0.166862
v 0.957140 1.794802 0.200559
v 1.015626 1.629636 -0.142035
v 1.015626 1.629636 0.175732
v -0.003730 0.922175 -0.168516
v 0.798985 0.921563 -0.168516
v 0.798985 0.921563 0.202213
v -0.003730 0.922175 0.202213
v 0.047574 1.574783 -0.168516
v 0.943170 1.574379 -0.190679
v 0.943170 1.574379 0.224376
v 0.047574 1.574783 0.202213
v 1.074349 1.572648 -0.128640
v 1.054795 1.485730 -0.110203
v 1.074349 1.572648 0.162337
v 1.054795 1.485730 0.143900
v 1.084568 1.618073 -0.110466
v 1.084568 1.618073 0.144163
v 1.225175 1.569908 -0.100989
v 1.209033 1.498154 -0.079907
v 1.225175 1.569908 0.134872
v 1.209033 1.498154 0.113604
v 1.233603 1.607370 -0.082796
v 1.233603 1.607370 0.116493
v 1.279035 1.567021 -0.091116
v 1.265498 1.507977 -0.070973
v 1.279035 1.567021 0.126864
v 1.265498 1.507976 0.104856
v 1.282737 1.598588 -0.071066
v 1.282737 1.598588 0.104763
v 1.547363 1.569902 -0.042727
v 1.530635 1.547408 -0.034300
v 1.547363 1.569902 0.074187
v 1.530635 1.547408 0.067749
v 1.500388 1.586970 -0.034952
v 1.500388 1.586970 0.068649
v 1.525439 1.622056 -0.030355
v 1.525439 1.622056 0.064052
v 1.563302 1.608567 -0.030927
v 1.563302 1.608567 0.064438
v 1.522344 1.893675 -0.027990
v 1.522344 1.893675 0.061687
v 1.558685 1.862213 -0.027990
v 1.558685 1.862213 0.061687
v 0.024850 1.605150 0.202213
v 0.024850 1.605150 -0.168516
v 0.948369 1.604529 -0.190679
v 0.948369 1.604529 0.224376
v 1.080146 1.598418 -0.128640
v 1.080146 1.598418 0.162337
v 1.229953 1.591149 -0.101082
v 1.229953 1.591149 0.134779
v 1.281372 1.584966 -0.088873
v 1.281372 1.584966 0.122756
v 1.522050 1.579116 -0.044975
v 1.522050 1.579116 0.078485
v 1.544371 1.616379 -0.037273
v 1.544371 1.616379 0.070970
v 1.540411 1.896733 -0.030232
v 1.540411 1.896733 0.063929
v 0.241435 1.943598 0.200559
v 0.241435 1.943598 -0.166862
v 1.059421 1.917110 -0.146805
v 1.059421 1.917110 0.180503
v 1.515041 1.979482 -0.050057
v 1.515041 1.979482 0.083755
v 1.504828 1.923850 -0.050057
v 1.504828 1.923850 0.083755
vt 0.620276 0.000000
vt 0.625000 0.000000
vt 0.625000 0.250000
vt 0.620276 0.250000
vt 0.625000 0.500000
vt 0.620276 0.500000
vt 0.625000 0.750000
vt 0.620276 0.750000
vt 0.620276 0.750000
vt 0.625000 0.750000
vt 0.625000 1.000000
vt 0.620276 1.000000
vt 0.125000 0.500000
vt 0.375000 0.500000
vt 0.375000 0.750000
vt 0.125000 0.750000
vt 0.875000 0.500000
vt 0.875000 0.750000
vt 0.380774 0.750000
vt 0.380774 1.000000
vt 0.375000 1.000000
vt 0.380774 0.500000
vt 0.375000 0.250000
vt 0.380774 0.250000
vt 0.375000 0.000000
vt 0.380774 0.000000
vt 0.463353 0.750000
vt 0.545932 0.750000
vt 0.545932 1.000000
vt 0.463353 1.000000
vt 0.463353 0.500000
vt 0.545932 0.500000
vt 0.463353 0.250000
vt 0.545932 0.250000
vt 0.463353 0.000000
vt 0.545932 0.000000
vt 0.567223 0.750000
vt 0.570981 0.750000
vt 0.570981 1.000000
vt 0.567223 1.000000
vt 0.563466 0.750000
vt 0.545932 0.750000
vt 0.563466 0.750000
vt 0.567223 0.250000
vt 0.570981 0.250000
vt 0.570981 0.500000
vt 0.567223 0.500000
vt 0.567223 0.000000
vt 0.570981 0.000000
vt 0.582590 0.750000
vt 0.582590 1.000000
vt 0.582590 0.500000
vt 0.582590 0.250000
vt 0.582590 0.000000
vt 0.595706 0.750000
vt 0.595706 1.000000
vt 0.595706 0.500000
vt 0.595706 0.250000
vt 0.595706 0.000000
vt 0.570981 0.750000
vt 0.570981 0.500000
vt 0.563466 0.000000
vt 0.563466 0.250000
vt 0.563466 0.500000
vt 0.545932 0.500000
vt 0.563466 1.000000
vt 0.563466 0.500000
vt 0.563466 0.500000
vt 0.545932 0.500000
vt 0.545932 0.750000
vt 0.567223 0.750000
vt 0.570981 0.750000
vt 0.570981 0.500000
vt 0.567223 0.500000
vt 0.567223 0.500000
vt 0.570981 0.500000
vt 0.570981 0.500000
vt 0.567223 0.500000
vt 0.563466 0.750000
vt 0.545932 0.750000
vt 0.563466 0.750000
vt 0.567223 0.750000
vt 0.570981 0.750000
vt 0.567223 0.750000
vt 0.563466 0.750000
vt 0.567223 0.750000
vt 0.545932 0.500000
vt 0.563466 0.500000
vt 0.563466 0.500000
vt 0.545932 0.500000
vt 0.570981 0.750000
vt 0.563466 0.500000
vt 0.563466 0.750000
vt 0.545932 0.750000
vt 0.570981 0.750000
vt 0.570981 0.500000
vt 0.567223 0.500000
vt 0.563466 0.500000
vt 0.563466 0.750000
vt 0.570981 0.500000
vt 0.567223 0.500000
vt 0.567223 0.750000
vt 0.570981 0.750000
vt 0.567223 0.500000
vt 0.570981 0.500000
vt 0.570981 0.750000
vt 0.567223 0.750000
vt 0.620276 0.500000
vt 0.625000 0.500000
vn -0.4902 0.8716 0.0000
vn 0.0262 0.1384 -0.9900
vn 0.2048 0.0221 0.9786
vn 0.0262 0.1384 0.9900
vn -0.0001 -1.0000 0.0000
vn 0.0021 1.0000 0.0000
vn -0.0001 -0.1310 0.9914
vn 0.9998 0.0222 0.0000
vn -0.0001 -0.1310 -0.9914
vn -0.5134 -0.8582 0.0000
vn -0.0011 -0.0015 1.0000
vn 0.9692 -0.2463 0.0000
vn -0.0011 -0.0015 -1.0000
vn -0.9750 0.2222 0.0000
vn -0.0138 0.2826 0.9591
vn 0.4504 -0.2187 0.8656
vn -0.0138 0.2826 -0.9591
vn -0.6814 -0.7319 0.0000
vn -0.0028 0.0362 0.9993
vn 0.8878 0.4602 0.0000
vn -0.0028 0.0362 -0.9993
vn -0.4261 -0.9047 0.0000
vn 0.0008 0.0083 1.0000
vn 0.9675 -0.2530 0.0000
vn 0.0008 0.0083 -1.0000
vn -0.4291 0.9033 0.0000
vn 0.0408 0.9992 0.0000
vn -0.9755 0.2200 -0.0000
vn 0.0000 0.0000 -1.0000
vn 0.9762 -0.2171 0.0000
vn -0.0000 0.0000 1.0000
vn -0.8993 -0.4374 0.0000
vn -0.0137 -0.0788 -0.9968
vn 0.3200 -0.9474 0.0000
vn -0.0137 -0.0788 0.9968
vn 0.1878 -0.2769 -0.9424
vn 0.0803 -0.9968 0.0000
vn 0.4232 -0.0832 0.9022
vn 0.4504 -0.2187 -0.8656
vn 0.1185 0.9930 0.0000
vn 0.4552 0.3271 -0.8281
vn 0.2596 0.7262 -0.6365
vn 0.1621 -0.3429 0.9253
vn 0.1787 -0.0382 0.9832
vn 0.0716 0.9974 0.0000
vn 0.1872 -0.2779 0.9422
vn 0.1723 0.6828 -0.7100
vn 0.1858 0.1504 0.9710
vn 0.1750 -0.3828 -0.9071
vn 0.1714 -0.9852 0.0000
vn 0.1788 -0.3324 -0.9260
vn 0.1923 0.0700 0.9788
vn 0.1759 0.9844 0.0000
vn 0.9245 -0.3811 0.0000
vn 0.8024 -0.5968 0.0000
vn 0.0533 0.9986 0.0000
vn 0.1828 -0.3836 0.9052
vn 0.1269 0.8279 -0.5463
vn 0.1471 -0.9891 -0.0000
vn 0.9998 0.0182 0.0000
vn -0.2680 0.3294 -0.9053
vn 0.2672 0.0836 0.9600
vn -0.8139 0.5811 0.0000
vn -0.1669 0.9860 0.0000
vn -0.2394 0.0135 -0.9708
vn 0.2529 0.0218 0.9672
vn -0.9999 -0.0114 0.0000
vn -0.2394 0.0135 0.9708
vn 0.2487 0.0221 -0.9683
vn 0.8838 0.4679 0.0000
vn -0.2658 0.3259 0.9072
vn 0.2364 0.1282 -0.9632
vn 0.1772 0.1498 -0.9727
vn 0.2583 0.7283 0.6348
vn 0.1273 0.8280 0.5461
vn 0.1791 -0.0422 -0.9829
vn 0.1723 0.6828 0.7100
vn 0.2066 0.0162 -0.9783
vn 0.4232 -0.0832 -0.9022
vn 0.4552 0.3271 0.8281
vn -0.8006 -0.5991 0.0000
vn -0.0244 -0.0071 -0.9997
vn -0.0244 -0.0071 0.9997
vn 0.0135 0.0648 0.9978
vn 0.7671 -0.6415 0.0000
vn 0.0135 0.0648 -0.9978
vn -0.5672 0.8236 0.0000
vn 0.9836 -0.1806 0.0000
vn 0.0031 1.0000 0.0000
vn 0.2048 0.0221 -0.9786
vn 0.0151 -0.9999 0.0000
usemtl None
s off
f 119/45/12 34/46/12 36/47/12 120/48/12
f 120/48/13 36/47/13 40/49/13 121/50/13
f 38/51/14 122/52/14 126/53/14 124/54/14
f 122/52/15 38/51/15 34/55/15 119/56/15
f 35/57/16 39/58/16 37/59/16 33/60/16
f 40/49/17 36/61/17 34/62/17 38/51/17
f 37/59/18 44/63/18 41/64/18 33/65/18
f 39/58/19 43/66/19 44/63/19 37/59/19
f 35/67/20 42/68/20 43/66/20 39/58/20
f 33/69/21 41/70/21 42/68/21 35/67/21
f 65/71/22 48/72/22 45/73/22 66/74/22
f 64/75/23 47/76/23 48/72/23 65/71/23
f 63/77/24 46/78/24 47/76/24 64/75/24
f 66/79/25 45/80/25 46/78/25 63/77/25
f 106/81/26 52/82/26 49/83/26 103/84/26
f 69/85/27 48/72/27 74/86/27 73/87/27
f 104/88/28 50/89/28 51/90/28 105/91/28
f 103/92/29 49/93/29 50/89/29 104/88/29
f 52/82/30 56/94/30 53/95/30 49/83/30
f 51/90/31 55/96/31 56/94/31 52/82/31
f 50/89/32 54/97/32 55/96/32 51/90/32
f 49/93/33 53/98/33 54/97/33 50/89/33
f 56/94/34 60/99/34 57/100/34 53/95/34
f 55/96/35 59/101/35 60/99/35 56/94/35
f 54/97/36 58/102/36 59/101/36 55/96/36
f 53/98/37 57/103/37 58/102/37 54/97/37
f 51/90/38 52/82/38 62/104/38 61/105/38
f 41/70/39 66/79/39 63/77/39 42/68/39
f 42/68/40 63/77/40 64/75/40 43/66/40
f 43/66/41 64/75/41 65/71/41 44/63/41
f 44/63/42 65/71/42 66/74/42 41/64/42
f 45/80/43 70/106/43 67/107/43 46/78/43
f 46/78/44 67/107/44 68/108/44 47/76/44
f 48/72/45 47/76/45 72/109/45 74/86/45
f 48/72/46 69/85/46 70/110/46 45/73/46
f 72/109/47 71/111/47 77/112/47 78/113/47
f 74/86/48 72/109/48 78/113/48 80/114/48
f 106/81/49 69/85/49 73/87/49 108/115/49
f 47/76/50 68/108/50 71/111/50 72/109/50
f 51/90/51 52/82/51 76/116/51 75/117/51
f 105/91/52 51/90/52 75/117/52 107/118/52
f 109/119/53 81/120/53 87/121/53 111/122/53
f 79/123/54 80/114/54 86/124/54 85/125/54
f 108/115/55 73/87/55 79/123/55 110/126/55
f 75/117/56 76/116/56 82/127/56 81/120/56
f 73/87/57 74/86/57 80/114/57 79/123/57
f 107/118/58 75/117/58 81/120/58 109/119/58
f 112/128/59 85/125/59 91/129/59 114/130/59
f 84/131/60 83/132/60 89/133/60 90/134/60
f 80/114/61 78/113/61 84/131/61 86/124/61
f 78/113/62 77/112/62 83/132/62 84/131/62
f 110/126/63 79/123/63 85/125/63 112/128/63
f 81/120/64 82/127/64 88/135/64 87/121/64
f 91/129/65 89/133/65 97/136/65 98/137/65
f 90/134/66 89/133/66 91/129/66 92/138/66
f 87/121/67 88/135/67 94/139/67 93/140/67
f 85/125/68 86/124/68 92/138/68 91/129/68
f 111/122/69 87/121/69 93/140/69 113/141/69
f 86/124/70 84/131/70 90/134/70 92/138/70
f 98/137/71 97/136/71 101/142/71 102/143/71
f 113/141/72 93/140/72 95/144/72 115/145/72
f 114/130/73 91/129/73 98/137/73 116/146/73
f 93/140/74 94/139/74 96/147/74 95/144/74
f 117/148/75 99/149/75 100/150/75 118/151/75
f 115/145/76 95/144/76 99/149/76 117/148/76
f 116/146/77 98/137/77 102/143/77 118/151/77
f 95/144/78 96/147/78 100/150/78 99/149/78
f 96/147/79 116/146/79 118/151/79 100/150/79
f 97/136/80 115/145/80 117/148/80 101/142/80
f 101/142/81 117/148/81 118/151/81 102/143/81
f 94/139/82 114/130/82 116/146/82 96/147/82
f 89/133/83 113/141/83 115/145/83 97/136/83
f 83/132/84 111/122/84 113/141/84 89/133/84
f 82/127/85 110/126/85 112/128/85 88/135/85
f 88/135/86 112/128/86 114/130/86 94/139/86
f 71/111/87 107/118/87 109/119/87 77/112/87
f 76/116/88 108/115/88 110/126/88 82/127/88
f 77/112/89 109/119/89 111/122/89 83/132/89
f 68/108/90 105/91/90 107/118/90 71/111/90
f 52/82/91 106/81/91 108/115/91 76/116/91
f 70/106/92 103/92/92 104/88/92 67/107/92
f 67/107/93 104/88/93 105/91/93 68/108/93
f 69/85/94 106/81/94 103/84/94 70/110/94
f 60/99/95 122/52/95 119/56/95 57/100/95
f 59/101/96 121/50/96 122/52/96 60/99/96
f 58/102/97 120/48/97 121/50/97 59/101/97
f 57/103/98 119/45/98 120/48/98 58/102/98
f 125/152/99 123/153/99 124/54/99 126/53/99
f 40/49/100 38/51/100 124/54/100 123/153/100
f 121/50/101 40/49/101 123/153/101 125/152/101
f 122/52/102 121/50/102 125/152/102 126/53/102
o Cube_Cube.003
v 0.171738 1.945419 0.281456
v 0.171738 2.443156 0.281456
v 0.171738 1.945419 -0.226277
v 0.171738 2.443156 -0.226277
v 3.044244 1.945419 0.281456
v 3.044244 2.443156 0.281456
v 3.044244 1.945419 -0.226277
v 3.044244 2.443156 -0.226277
vt 0.375000 0.000000
vt 0.625000 0.000000
vt 0.625000 0.250000
vt 0.375000 0.250000
vt 0.625000 0.500000
vt 0.375000 0.500000
vt 0.625000 0.750000
vt 0.375000 0.750000
vt 0.625000 1.000000
vt 0.375000 1.000000
vt 0.125000 0.500000
vt 0.125000 0.750000
vt 0.875000 0.500000
vt 0.875000 0.750000
vn -1.0000 0.0000 0.0000
vn 0.0000 0.0000 -1.0000
vn 1.0000 0.0000 0.0000
vn 0.0000 0.0000 1.0000
vn 0.0000 -1.0000 0.0000
vn 0.0000 1.0000 0.0000
usemtl None
s off
f 127/154/103 128/155/103 130/156/103 129/157/103
f 129/157/104 130/156/104 134/158/104 133/159/104
f 133/159/105 134/158/105 132/160/105 131/161/105
f 131/161/106 132/160/106 128/162/106 127/163/106
f 129/164/107 133/159/107 131/161/107 127/165/107
f 134/158/108 130/166/108 128/167/108 132/160/108
